<svg viewBox="0 0 4 2" xmlns="http://www.w3.org/2000/svg" xmlns:xlink="http://www.w3.org/1999/xlink">
  <defs>
    <filter x="-0.001" y="-0.001" width="1.002" height="1.002" id="solid">
      <feFlood flood-color="#ffffff"/>
      <feComposite in="SourceGraphic" operator="xor" />
    </filter>
  </defs>
  <path d="M 2 1 A 1 1 0 0 1 0.08002055634117577 1.3919666098600751 L 1 1" fill="#3572A5" style="transform-origin: 1px 1px; transform: rotate(-90deg)"/>
<path d="M 0.08002055634117577 1.3919666098600751 A 1 1 0 0 1 1.6927243535095993 0.27879755265618544 L 1 1" fill="#F18E33" style="transform-origin: 1px 1px; transform: rotate(-90deg)"/>
<path d="M 1.6927243535095993 0.27879755265618544 A 1 1 0 0 1 1.970941817426052 0.7606843357124422 L 1 1" fill="#dea584" style="transform-origin: 1px 1px; transform: rotate(-90deg)"/>
<path d="M 1.970941817426052 0.7606843357124422 A 1 1 0 0 1 1.99675730813421 0.9195334312832742 L 1 1" fill="#f1e05a" style="transform-origin: 1px 1px; transform: rotate(-90deg)"/>
<path d="M 1.99675730813421 0.9195334312832742 A 1 1 0 0 1 1.9991889981715696 0.9597340598905848 L 1 1" fill="#f34b7d" style="transform-origin: 1px 1px; transform: rotate(-90deg)"/>
<path d="M 1.9991889981715696 0.9597340598905848 A 1 1 0 0 1 2 0.9999999999999998 L 1 1" fill="#88aaee" style="transform-origin: 1px 1px; transform: rotate(-90deg)"/>
    <circle cx="2.2" cy="0.1" r="0.04" fill="#3572A5"/>
<text filter="url(#solid)" style="font-size: 0.08px;" x="2.2600000000000002" y="0.1" dominant-baseline="middle">Python</text>
<text style="font-size: 0.08px;" x="2.2600000000000002" y="0.1" dominant-baseline="middle">Python</text>
<circle cx="2.2" cy="0.21250000000000002" r="0.04" fill="#F18E33"/>
<text filter="url(#solid)" style="font-size: 0.08px;" x="2.2600000000000002" y="0.21250000000000002" dominant-baseline="middle">Kotlin</text>
<text style="font-size: 0.08px;" x="2.2600000000000002" y="0.21250000000000002" dominant-baseline="middle">Kotlin</text>
<circle cx="2.2" cy="0.325" r="0.04" fill="#dea584"/>
<text filter="url(#solid)" style="font-size: 0.08px;" x="2.2600000000000002" y="0.325" dominant-baseline="middle">Rust</text>
<text style="font-size: 0.08px;" x="2.2600000000000002" y="0.325" dominant-baseline="middle">Rust</text>
<circle cx="2.2" cy="0.4375" r="0.04" fill="#f1e05a"/>
<text filter="url(#solid)" style="font-size: 0.08px;" x="2.2600000000000002" y="0.4375" dominant-baseline="middle">ECMAScript</text>
<text style="font-size: 0.08px;" x="2.2600000000000002" y="0.4375" dominant-baseline="middle">ECMAScript</text>
<circle cx="2.2" cy="0.55" r="0.04" fill="#f34b7d"/>
<text filter="url(#solid)" style="font-size: 0.08px;" x="2.2600000000000002" y="0.55" dominant-baseline="middle">C++</text>
<text style="font-size: 0.08px;" x="2.2600000000000002" y="0.55" dominant-baseline="middle">C++</text>
<circle cx="2.2" cy="0.6625" r="0.04" fill="#88aaee"/>
<text filter="url(#solid)" style="font-size: 0.08px;" x="2.2600000000000002" y="0.6625" dominant-baseline="middle">Text</text>
<text style="font-size: 0.08px;" x="2.2600000000000002" y="0.6625" dominant-baseline="middle">Text</text>
</svg>