<svg viewBox="0 0 4 2" xmlns="http://www.w3.org/2000/svg" xmlns:xlink="http://www.w3.org/1999/xlink">
  <path d="M 2 1 A 1 1 0 1 1 0.19756946862323554 0.4032544576501611 L 1 1" fill="#3572A5" style="transform-origin: 1px 1px; transform: rotate(-90deg)"/>
<path d="M 0.19756946862323554 0.4032544576501611 A 1 1 0 0 1 1.6296804231895137 0.223145724957457 L 1 1" fill="#F18E33" style="transform-origin: 1px 1px; transform: rotate(-90deg)"/>
<path d="M 1.6296804231895137 0.223145724957457 A 1 1 0 0 1 1.9753678796517278 0.7794155505397253 L 1 1" fill="#dea584" style="transform-origin: 1px 1px; transform: rotate(-90deg)"/>
<path d="M 1.9753678796517278 0.7794155505397253 A 1 1 0 0 1 2 0.9999999999999998 L 1 1" fill="#f1e05a" style="transform-origin: 1px 1px; transform: rotate(-90deg)"/>
    <circle cx="2.2" cy="0.1" r="0.04" fill="#3572A5"/>
<text x="2.2600000000000002" y="0.1" dominant-baseline="middle" style="font-size: 0.08px;">Python</text>
<circle cx="2.2" cy="0.21250000000000002" r="0.04" fill="#F18E33"/>
<text x="2.2600000000000002" y="0.21250000000000002" dominant-baseline="middle" style="font-size: 0.08px;">Kotlin</text>
<circle cx="2.2" cy="0.325" r="0.04" fill="#dea584"/>
<text x="2.2600000000000002" y="0.325" dominant-baseline="middle" style="font-size: 0.08px;">Rust</text>
<circle cx="2.2" cy="0.4375" r="0.04" fill="#f1e05a"/>
<text x="2.2600000000000002" y="0.4375" dominant-baseline="middle" style="font-size: 0.08px;">ECMAScript</text>
</svg>