<svg viewBox="0 0 4 2" xmlns="http://www.w3.org/2000/svg" xmlns:xlink="http://www.w3.org/1999/xlink">
  <defs>
    <filter x="-0.001" y="-0.001" width="1.002" height="1.002" id="solid">
      <feFlood flood-color="#ffffff"/>
      <feComposite in="SourceGraphic" operator="xor" />
    </filter>
  </defs>
  <path d="M 2 1 A 1 1 0 1 1 0.000147352294973091 0.9828336702452929 L 1 1" fill="#F18E33" style="transform-origin: 1px 1px; transform: rotate(-90deg)"/>
<path d="M 0.000147352294973091 0.9828336702452929 A 1 1 0 0 1 1.7040655221348056 0.2898649842874642 L 1 1" fill="#3572A5" style="transform-origin: 1px 1px; transform: rotate(-90deg)"/>
<path d="M 1.7040655221348056 0.2898649842874642 A 1 1 0 0 1 1.9625134626077079 0.7287660893270891 L 1 1" fill="#dea584" style="transform-origin: 1px 1px; transform: rotate(-90deg)"/>
<path d="M 1.9625134626077079 0.7287660893270891 A 1 1 0 0 1 1.9905840354577968 0.8630939420765246 L 1 1" fill="#f1e05a" style="transform-origin: 1px 1px; transform: rotate(-90deg)"/>
<path d="M 1.9905840354577968 0.8630939420765246 A 1 1 0 0 1 1.9994106342455051 0.9656723994867565 L 1 1" fill="#88aaee" style="transform-origin: 1px 1px; transform: rotate(-90deg)"/>
<path d="M 1.9994106342455051 0.9656723994867565 A 1 1 0 0 1 2 0.9999999999999998 L 1 1" fill="#f34b7d" style="transform-origin: 1px 1px; transform: rotate(-90deg)"/>
    <circle cx="2.2" cy="0.1" r="0.04" fill="#F18E33"/>
<text filter="url(#solid)" style="font-size: 0.08px;" x="2.2600000000000002" y="0.1" dominant-baseline="middle">Kotlin</text>
<text style="font-size: 0.08px;" x="2.2600000000000002" y="0.1" dominant-baseline="middle">Kotlin</text>
<circle cx="2.2" cy="0.21250000000000002" r="0.04" fill="#3572A5"/>
<text filter="url(#solid)" style="font-size: 0.08px;" x="2.2600000000000002" y="0.21250000000000002" dominant-baseline="middle">Python</text>
<text style="font-size: 0.08px;" x="2.2600000000000002" y="0.21250000000000002" dominant-baseline="middle">Python</text>
<circle cx="2.2" cy="0.325" r="0.04" fill="#dea584"/>
<text filter="url(#solid)" style="font-size: 0.08px;" x="2.2600000000000002" y="0.325" dominant-baseline="middle">Rust</text>
<text style="font-size: 0.08px;" x="2.2600000000000002" y="0.325" dominant-baseline="middle">Rust</text>
<circle cx="2.2" cy="0.4375" r="0.04" fill="#f1e05a"/>
<text filter="url(#solid)" style="font-size: 0.08px;" x="2.2600000000000002" y="0.4375" dominant-baseline="middle">ECMAScript</text>
<text style="font-size: 0.08px;" x="2.2600000000000002" y="0.4375" dominant-baseline="middle">ECMAScript</text>
<circle cx="2.2" cy="0.55" r="0.04" fill="#88aaee"/>
<text filter="url(#solid)" style="font-size: 0.08px;" x="2.2600000000000002" y="0.55" dominant-baseline="middle">Text</text>
<text style="font-size: 0.08px;" x="2.2600000000000002" y="0.55" dominant-baseline="middle">Text</text>
<circle cx="2.2" cy="0.6625" r="0.04" fill="#f34b7d"/>
<text filter="url(#solid)" style="font-size: 0.08px;" x="2.2600000000000002" y="0.6625" dominant-baseline="middle">C++</text>
<text style="font-size: 0.08px;" x="2.2600000000000002" y="0.6625" dominant-baseline="middle">C++</text>
</svg>