<svg viewBox="0 0 4 2" xmlns="http://www.w3.org/2000/svg" xmlns:xlink="http://www.w3.org/1999/xlink">
  <path d="M 2 1 A 1 1 0 1 1 0.3411141942038888 0.24775702401390998 L 1 1" fill="#3572A5" style="transform-origin: 1px 1px; transform: rotate(-90deg)"/>
<path d="M 0.3411141942038888 0.24775702401390998 A 1 1 0 0 1 1.7225049421328023 0.30863424398248074 L 1 1" fill="#F18E33" style="transform-origin: 1px 1px; transform: rotate(-90deg)"/>
<path d="M 1.7225049421328023 0.30863424398248074 A 1 1 0 0 1 1.9725410112949588 0.7672684349956395 L 1 1" fill="#dea584" style="transform-origin: 1px 1px; transform: rotate(-90deg)"/>
<path d="M 1.9725410112949588 0.7672684349956395 A 1 1 0 0 1 2 0.9999999999999998 L 1 1" fill="#f1e05a" style="transform-origin: 1px 1px; transform: rotate(-90deg)"/>
    <circle cx="2.2" cy="0.1" r="0.04" fill="#3572A5"/>
<text x="2.2600000000000002" y="0.1" dominant-baseline="middle" style="font-size: 0.08px;">Python</text>
<circle cx="2.2" cy="0.21250000000000002" r="0.04" fill="#F18E33"/>
<text x="2.2600000000000002" y="0.21250000000000002" dominant-baseline="middle" style="font-size: 0.08px;">Kotlin</text>
<circle cx="2.2" cy="0.325" r="0.04" fill="#dea584"/>
<text x="2.2600000000000002" y="0.325" dominant-baseline="middle" style="font-size: 0.08px;">Rust</text>
<circle cx="2.2" cy="0.4375" r="0.04" fill="#f1e05a"/>
<text x="2.2600000000000002" y="0.4375" dominant-baseline="middle" style="font-size: 0.08px;">ECMAScript</text>
</svg>